<?xml version="1.0" encoding="UTF-8" standalone="no"?>
<svg width="48px" height="48px" viewBox="0 0 48 48" version="1.1" xmlns="http://www.w3.org/2000/svg" xmlns:xlink="http://www.w3.org/1999/xlink" xmlns:sketch="http://www.bohemiancoding.com/sketch/ns">
    <title>personal</title>
    <description>Created with Sketch (http://www.bohemiancoding.com/sketch)</description>
    <defs></defs>
    <g id="Page-1" stroke="none" stroke-width="1" fill="none" fill-rule="evenodd" sketch:type="MSPage">
        <g id="personal" sketch:type="MSArtboardGroup" stroke="#000000" stroke-width="2">
            <path d="M27.217037,25.5281481 L40.8414815,32.9407407 C42.06,33.5985185 42.7696296,34.7859259 42.7696296,36.1688889 L42.7696296,39.3103704 C42.7696296,40.6555556 41.6718519,41.7540741 40.3251852,41.7540741 L7.44444444,41.7540741 C6.09851852,41.7540741 5,40.6555556 5,39.3103704 L5,36.1688889 C5,34.7859259 5.70962963,33.5985185 6.92814815,32.9407407 L20.6888889,25.597037 M33.7918519,15.1111111 C33.7918519,21.2474074 29.3555556,26.2222222 23.8837037,26.2222222 C18.4118519,26.2222222 13.9762963,21.2474074 13.9762963,15.1111111 C13.9762963,8.97407407 18.4118519,4 23.8837037,4 C29.3555556,4 33.7918519,8.97407407 33.7918519,15.1111111" id="Personal" sketch:type="MSShapeGroup"></path>
        </g>
    </g>
</svg>