<?xml version="1.0" encoding="utf-8"?>
<!-- Generator: Adobe Illustrator 16.0.4, SVG Export Plug-In . SVG Version: 6.00 Build 0)  -->
<!DOCTYPE svg PUBLIC "-//W3C//DTD SVG 1.1//EN" "http://www.w3.org/Graphics/SVG/1.1/DTD/svg11.dtd">
<svg version="1.1" id="Layer_1" xmlns="http://www.w3.org/2000/svg" xmlns:xlink="http://www.w3.org/1999/xlink" x="0px" y="0px"
	 width="44px" height="40px" viewBox="0 0 44 40" enable-background="new 0 0 44 40" xml:space="preserve">
<path fill="#FFFFFF" d="M18.615,2c1.23,0,2.23,1.013,2.23,2.258v30.469c-0.747-0.552-1.685-0.919-2.852-0.958l-0.033-0.001h-0.033
	H4.231C3.001,33.769,2,32.755,2,31.51V4.258C2,3.013,3.001,2,4.231,2H18.615 M39.77,2C40.999,2,42,3.013,42,4.258v27.253
	c0,1.244-1.001,2.257-2.23,2.257H26.072h-0.033l-0.034,0.001c-1.167,0.039-2.104,0.407-2.852,0.959V4.258
	C23.153,3.013,24.154,2,25.385,2H39.77 M39.77,0H25.385C23.994,0,22.771,0.684,22,1.727C21.229,0.684,20.006,0,18.615,0H4.231
	C1.895,0,0,1.907,0,4.258V31.51c0,2.353,1.895,4.259,4.231,4.259h13.696c1.982,0.065,2.851,1.67,3.227,2.883V40L22,39.998L22.846,40
	v-1.343c0.374-1.214,1.242-2.823,3.227-2.89H39.77c2.337,0,4.23-1.905,4.23-4.257V4.258C44,1.906,42.106,0,39.77,0z"/>
</svg>
