<?xml version="1.0" encoding="UTF-8" standalone="no"?>
<svg width="48px" height="48px" viewBox="0 0 48 48" version="1.1" xmlns="http://www.w3.org/2000/svg" xmlns:xlink="http://www.w3.org/1999/xlink" xmlns:sketch="http://www.bohemiancoding.com/sketch/ns">
    <title>email</title>
    <description>Created with Sketch (http://www.bohemiancoding.com/sketch)</description>
    <defs></defs>
    <g id="Page-1" stroke="none" stroke-width="1" fill="none" fill-rule="evenodd" sketch:type="MSPage">
        <g id="email" sketch:type="MSArtboardGroup" stroke="#000000" stroke-width="2">
            <path d="M41.8369231,11 C43.2361538,11 44.3761538,12.1760882 44.3761538,13.6205882 L44.3761538,14.3702353 L24.1853846,31.2388824 L4,14.3726176 L4,13.6205882 C4,12.1760882 5.13923077,11 6.53769231,11 L41.8369231,11 M44.3761538,35.7661471 C44.3761538,37.2098529 43.2361538,38.3859412 41.8369231,38.3859412 L6.53769231,38.3859412 C5.13923077,38.3859412 4,37.2098529 4,35.7661471 L4,13.6205882 C4,12.1760882 5.13923077,11 6.53769231,11 L41.8369231,11 C43.2361538,11 44.3761538,12.1760882 44.3761538,13.6205882 L44.3761538,35.7661471" id="Mail" sketch:type="MSShapeGroup"></path>
        </g>
    </g>
</svg>