<?xml version="1.0" encoding="UTF-8" standalone="no"?>
<svg width="48px" height="48px" viewBox="0 0 48 48" version="1.1" xmlns="http://www.w3.org/2000/svg" xmlns:xlink="http://www.w3.org/1999/xlink" xmlns:sketch="http://www.bohemiancoding.com/sketch/ns">
    <title>all</title>
    <description>Created with Sketch (http://www.bohemiancoding.com/sketch)</description>
    <defs></defs>
    <g id="Page-1" stroke="none" stroke-width="1" fill="none" fill-rule="evenodd" sketch:type="MSPage">
        <g id="all" sketch:type="MSArtboardGroup" stroke="#000000" stroke-width="2">
            <path d="M37.0700709,16.0171154 L37.0700709,4.47942308 L32.4458417,4.47942308 L32.4458417,11.4025 M20.8856542,39.0948077 L20.8856542,27.5563462 L27.8223834,27.5563462 L27.8223834,39.0948077 M37.0585084,22.9332692 L40.0763209,22.9332692 C40.7484875,22.9332692 41.3227584,22.5509615 41.5802167,21.9317308 C41.837675,21.3109615 41.7027792,20.6355769 41.227175,20.1609615 L25.5052584,4.47480769 C24.8716334,3.84173077 23.837175,3.84173077 23.2027792,4.47480769 L7.48163338,20.1609615 C7.00602921,20.6355769 6.87113338,21.3109615 7.12859171,21.9317308 C7.38527921,22.5509615 7.95955005,22.9332692 8.63248755,22.9332692 L11.6302584,22.9332692 L11.6379667,39.7640385 C11.6379667,40.6578846 12.3694875,41.3871154 13.2659667,41.3871154 L35.4428417,41.3871154 C36.33855,41.3871154 37.0700709,40.6578846 37.0700709,39.7640385 L37.0585084,22.9332692 L37.0585084,22.9332692 Z" id="Imported-Layers" sketch:type="MSShapeGroup"></path>
        </g>
    </g>
</svg>