<?xml version="1.0" encoding="UTF-8" standalone="no"?>
<svg width="48px" height="48px" viewBox="0 0 48 48" version="1.1" xmlns="http://www.w3.org/2000/svg" xmlns:xlink="http://www.w3.org/1999/xlink" xmlns:sketch="http://www.bohemiancoding.com/sketch/ns">
    <title>other</title>
    <description>Created with Sketch (http://www.bohemiancoding.com/sketch)</description>
    <defs></defs>
    <g id="Page-1" stroke="none" stroke-width="1" fill="none" fill-rule="evenodd" sketch:type="MSPage">
        <g id="other" sketch:type="MSArtboardGroup" stroke="#000000" stroke-width="2">
            <path d="M28.9007407,4.63481481 C33.2133333,7.89555556 36.2281481,15.3214815 36.2281481,23.9725926 C36.2281481,32.6237037 33.2133333,40.0496296 28.9007407,43.3103704 M23.9866667,4 C12.9555556,4 4.01333333,12.9414815 4.01333333,23.9725926 C4.01333333,35.0037037 12.9555556,43.9444444 23.9866667,43.9444444 C35.0162963,43.9444444 43.9577778,35.0037037 43.9577778,23.9725926 C43.9577778,12.9414815 35.0162963,4 23.9866667,4 M19.1281481,4.62 C14.8066667,7.87481481 11.7837037,15.3096296 11.7837037,23.9725926 C11.7837037,32.6355556 14.8066667,40.0711111 19.1281481,43.3244444 M23.9866667,4 L23.9866667,43.9725926 M4,23.9866667 L43.9718519,23.9866667 M6.69481481,13.9725926 L41.2762963,13.9725926 M6.69481481,33.9725926 L41.2762963,33.9725926" id="World" sketch:type="MSShapeGroup"></path>
        </g>
    </g>
</svg>