<?xml version="1.0" encoding="UTF-8" standalone="no"?>
<svg width="48px" height="48px" viewBox="0 0 48 48" version="1.1" xmlns="http://www.w3.org/2000/svg" xmlns:xlink="http://www.w3.org/1999/xlink" xmlns:sketch="http://www.bohemiancoding.com/sketch/ns">
    <title>hosting</title>
    <description>Created with Sketch (http://www.bohemiancoding.com/sketch)</description>
    <defs></defs>
    <g id="Page-1" stroke="none" stroke-width="1" fill="none" fill-rule="evenodd" sketch:type="MSPage">
        <g id="server" sketch:type="MSArtboardGroup" stroke="#000000" stroke-width="2">
            <path d="M31.1083333,8.0464 L34.6391667,4.6824 C38.0691667,7.976 40.1216667,12.4936 40.1216667,17.52 C40.1216667,27.572 31.6358333,35.7208 21.1633333,35.7208 C15.9583333,35.7208 11.2441667,33.7072 7.81833333,30.4472 L11.2016667,27.1824 M21.1225,35.8008 L21.1225,41.32 M13.6225,41.32 L28.6225,41.32 M35.2033333,17.5368 C35.2033333,25.0144 28.8891667,31.0752 21.1008333,31.0752 C13.3133333,31.0752 7,25.0144 7,17.5368 C7,10.0608 13.3133333,4 21.1008333,4 C28.8891667,4 35.2033333,10.0608 35.2033333,17.5368 M17.1966667,7.9264 C18.8958333,9.632 26.1233333,8.32 24.3658333,4.42 M8.50583333,23.62 C10.5375,23.62 13.2225,23.4304 13.78,20.5824 C14.0141667,19.3824 13.3725,19.0288 13.0766667,18.82 C11.9041667,17.9952 12.685,16.6448 14.17,17.1696 C17.3833333,18.3064 18.4275,15.4072 17.5683333,14.0576 C17.1216667,13.356 16.3966667,13.3448 16.28,12.4824 C16.075,10.984 17.8808333,11.3952 17.6466667,9.1072 C17.4633333,7.3232 15.225,6.1824 13.6625,6.032 M24.1691667,25.9824 C21.8258333,27.4824 19.6283333,27.3208 17.9791667,25.9072 C16.5333333,24.6696 16.0058333,21.8944 12.8416667,22.3824 M24.3658333,6.6328 C23.4283333,8.732 26.475,8.3944 26.7475,9.5952 C26.9841667,10.6264 25.42,10.72 24.8725,11.2072 C24.2425,11.7688 23.945,13.26 25.7325,13.8328 C27.725,14.4696 28.385,12.8296 29.3658333,12.7072 C31.1625,12.4824 32.1383333,16.12 30.3416667,16.9448 C29.4316667,17.3624 27.5275,17.0608 25.7325,16.9448 C18.4383333,16.476 22.1775,26.2448 26.3575,27.3696 C27.7866667,27.7544 29.9116667,27.5576 31.2791667,26.8072" id="Web-hosting" sketch:type="MSShapeGroup"></path>
        </g>
    </g>
</svg>