<?xml version="1.0" encoding="UTF-8" standalone="no"?>
<svg width="48px" height="48px" viewBox="0 0 48 48" version="1.1" xmlns="http://www.w3.org/2000/svg" xmlns:xlink="http://www.w3.org/1999/xlink" xmlns:sketch="http://www.bohemiancoding.com/sketch/ns">
    <title>tools</title>
    <description>Created with Sketch (http://www.bohemiancoding.com/sketch)</description>
    <defs></defs>
    <g id="Page-1" stroke="none" stroke-width="1" fill="none" fill-rule="evenodd" sketch:type="MSPage">
        <g id="tools" sketch:type="MSArtboardGroup" stroke="#000000" stroke-width="2">
            <path d="M25.6249128,14.5379899 L33.615501,6.54661738 C35.4445206,4.71838208 38.4405991,4.71838208 40.270403,6.54661738 C42.0907952,8.36779385 42.0915795,11.3795586 40.270403,13.2015193 L32.2790305,21.1921076 M37.0460893,9.78897032 L29.055501,17.7803429 M40.2570697,33.2564213 C42.0962854,35.095637 42.0962854,38.1223036 40.2570697,39.9623036 C38.4233442,41.7952448 35.3841285,41.7952448 33.550403,39.963088 L16.0358932,22.4477938 C12.8484422,23.3701468 9.26805006,22.5764213 6.75510888,20.0642644 C3.96295202,17.2721076 3.29393241,13.1599507 4.74412849,9.73406836 L11.1527559,16.1426958 C11.5449128,16.5348527 12.1864814,16.5348527 12.577854,16.1426958 L16.1433442,12.5779899 C16.5347167,12.1850487 16.5347167,11.5442644 16.1433442,11.1521076 L9.73550104,4.74426443 C13.1613834,3.29328404 17.2727559,3.96387228 20.0649128,6.75602914 C22.4547167,9.14583306 23.2892265,12.5019115 22.5700108,15.5693625 L40.2570697,33.2564213 M18.1190305,28.5450487 L14.2225599,32.4854409 L13.3856971,36.6203429 L7.62726574,40.7152448 L5.96452065,39.0517154 L10.0586383,33.2940684 L14.2225599,32.4854409 M36.3205991,37.1968135 L37.2602069,36.9175978 L37.4876579,35.963088 L36.7770697,35.2885782 L35.8374618,35.5693625 L35.6092265,36.5223036 L36.3205991,37.1968135 L36.3205991,37.1968135 Z" id="Tools" sketch:type="MSShapeGroup"></path>
        </g>
    </g>
</svg>