<?xml version="1.0" encoding="UTF-8" standalone="no"?>
<svg width="18px" height="12px" viewBox="0 0 18 12" version="1.1" xmlns="http://www.w3.org/2000/svg" xmlns:xlink="http://www.w3.org/1999/xlink" xmlns:sketch="http://www.bohemiancoding.com/sketch/ns">
    <title>Untitled</title>
    <description>Created with Sketch (http://www.bohemiancoding.com/sketch)</description>
    <defs></defs>
    <g id="Page-1" stroke="none" stroke-width="1" fill="none" fill-rule="evenodd" sketch:type="MSPage">
        <path d="M16.37,0.582 L1.614,0.582 C1.073,0.582 0.631,1.025 0.631,1.565 L0.631,3.534 L17.354,3.534 L17.354,1.565 C17.354,1.024 16.911,0.582 16.37,0.582 M0.63,10.417 C0.63,10.958 1.072,11.4 1.613,11.4 L16.37,11.4 C16.911,11.4 17.353,10.958 17.353,10.417 L17.353,3.534 L0.63,3.534 L0.63,10.417 M15.878,5.499 L12.927,5.499 M8.5,5.503 L2.106,5.503 M8.5,7.471 L2.106,7.471 M8.5,9.438 L2.106,9.438" id="Shape" stroke="#010101" sketch:type="MSShapeGroup"></path>
    </g>
</svg>