<?xml version="1.0" encoding="UTF-8" standalone="no"?>
<svg width="47px" height="51px" viewBox="0 0 47 51" version="1.1" xmlns="http://www.w3.org/2000/svg" xmlns:xlink="http://www.w3.org/1999/xlink" xmlns:sketch="http://www.bohemiancoding.com/sketch/ns">
    <title>Imported Layers</title>
    <description>Created with Sketch (http://www.bohemiancoding.com/sketch)</description>
    <defs></defs>
    <g id="Page-1" stroke="none" stroke-width="1" fill="none" fill-rule="evenodd" sketch:type="MSPage">
        <path d="M40.0098217,16.62225 L40.0098217,1.62325 L34.0108217,1.62325 L34.0108217,10.62325 L40.0098217,16.62225 Z M19.0138217,46.62325 L19.0138217,31.62325 L28.0128217,31.62325 L28.0128217,46.62325 L19.0138217,46.62325 Z M39.9948217,25.61325 L43.9098217,25.61325 C44.7818217,25.61325 45.5268217,25.11625 45.8608217,24.31125 C46.1948217,23.50425 46.0198217,22.62625 45.4028217,22.00925 L25.0068217,1.61725 C24.1848217,0.79425 22.8428217,0.79425 22.0198217,1.61725 L1.62482168,22.00925 C1.00782168,22.62625 0.832821684,23.50425 1.16682168,24.31125 C1.49982168,25.11625 2.24482168,25.61325 3.11782168,25.61325 L7.00682168,25.61325 L7.01682168,47.49325 C7.01682168,48.65525 7.96582168,49.60325 9.12882168,49.60325 L37.8988217,49.60325 C39.0608217,49.60325 40.0098217,48.65525 40.0098217,47.49325 L39.9948217,25.61325 L39.9948217,25.61325 Z" id="Imported-Layers" stroke="#000000" stroke-width="2" sketch:type="MSShapeGroup"></path>
    </g>
</svg>