<?xml version="1.0" encoding="UTF-8" standalone="no"?>
<svg width="48px" height="48px" viewBox="0 0 48 48" version="1.1" xmlns="http://www.w3.org/2000/svg" xmlns:xlink="http://www.w3.org/1999/xlink" xmlns:sketch="http://www.bohemiancoding.com/sketch/ns">
    <title>photo</title>
    <description>Created with Sketch (http://www.bohemiancoding.com/sketch)</description>
    <defs></defs>
    <g id="Page-1" stroke="none" stroke-width="1" fill="none" fill-rule="evenodd" sketch:type="MSPage">
        <g id="photo" sketch:type="MSArtboardGroup" stroke="#000000" stroke-width="2" stroke-linejoin="round">
            <path d="M18.014902,7 L29.9764706,7 C31.4086275,7 32.6376471,7.77435 33.3458824,9.12245 L36.2619608,14.65085 L40.1082353,14.65085 C42.2462745,14.65085 43.9905882,16.53615 43.9905882,18.85665 L43.9905882,37.2073 C43.9905882,39.5261 42.2462745,41.4131 40.1082353,41.4131 L7.88156863,41.4131 C5.7427451,41.4131 4,39.5261 4,37.2073 L4,18.85665 C4,16.537 5.7427451,14.65085 7.88156863,14.65085 L11.7286275,14.65085 L14.6439216,9.12415 C15.3552941,7.77435 16.5843137,7 18.014902,7 M23.9968627,27.39235 L16.532549,23.6141 C16.0243137,24.79815 15.7607843,26.08335 15.7607843,27.39235 C15.7607843,32.3215 19.4486275,36.3114 23.9968627,36.3114 C28.545098,36.3114 32.2321569,32.3164 32.2321569,27.39235 C32.2321569,22.46065 28.5435294,18.47075 23.9968627,18.47075 C23.0368627,18.47075 22.0815686,18.6535 21.1811765,19.0139 L23.9968627,27.39235 Z M20.4478431,12.1221 L27.5066667,12.1221 L20.4478431,12.1221 Z" id="Photo" sketch:type="MSShapeGroup"></path>
        </g>
    </g>
</svg>