<?xml version="1.0" encoding="UTF-8" standalone="no"?>
<svg width="48px" height="48px" viewBox="0 0 48 48" version="1.1" xmlns="http://www.w3.org/2000/svg" xmlns:xlink="http://www.w3.org/1999/xlink" xmlns:sketch="http://www.bohemiancoding.com/sketch/ns">
    <title>portfolio</title>
    <description>Created with Sketch (http://www.bohemiancoding.com/sketch)</description>
    <defs></defs>
    <g id="Page-1" stroke="none" stroke-width="1" fill="none" fill-rule="evenodd" sketch:type="MSPage">
        <g id="portfolio" sketch:type="MSArtboardGroup" stroke="#000000" stroke-width="2">
            <path d="M22.9622217,8 C33.3120752,8 42.0805049,20.6783689 41.8917448,23.0161325 C42.0805049,25.5227256 33.3120752,37.8666667 22.9622217,37.8666667 C12.6131114,37.8666667 4,25.3555117 4,23.0161325 C4,20.6783689 12.6131114,8 22.9622217,8 M18.2247416,19.9195891 C17.8687633,20.6959159 17.6842105,21.5426755 17.6842105,22.3996087 C17.6842105,25.6387381 20.276443,28.2666667 23.4740703,28.2666667 C26.6701532,28.2666667 29.2631579,25.6387381 29.2631579,22.3996087 C29.2631579,19.1596967 26.6701532,16.5333333 23.4740703,16.5333333 C22.7984065,16.5333333 22.1266036,16.6522866 21.4926379,16.8862803 M23.4740575,12.2666667 C17.9527226,12.2666667 13.4736842,17.0431665 13.4736842,22.9333333 C13.4736842,28.8235001 17.9527226,33.6 23.4740575,33.6 C28.9946459,33.6 33.4736842,28.8235001 33.4736842,22.9333333 C33.4736842,17.0431665 28.9946459,12.2666667 23.4740575,12.2666667" id="Eye" sketch:type="MSShapeGroup"></path>
        </g>
    </g>
</svg>