<?xml version="1.0" encoding="UTF-8" standalone="no"?>
<svg width="48px" height="48px" viewBox="0 0 48 48" version="1.1" xmlns="http://www.w3.org/2000/svg" xmlns:xlink="http://www.w3.org/1999/xlink" xmlns:sketch="http://www.bohemiancoding.com/sketch/ns">
    <title>social</title>
    <description>Created with Sketch (http://www.bohemiancoding.com/sketch)</description>
    <defs></defs>
    <g id="Page-1" stroke="none" stroke-width="1" fill="none" fill-rule="evenodd" sketch:type="MSPage">
        <g id="social" sketch:type="MSArtboardGroup" stroke="#000000" stroke-width="2">
            <path d="M30.9929825,23.6007619 L34.597193,21.5001905 M36.5045614,21.3569524 L41.4,24.3306667 C41.7073684,24.5112381 41.8870175,24.8358095 41.8870175,25.2152381 L41.8863158,26.432 C41.8863158,26.9851429 41.4708772,27.4377143 40.9607018,27.4377143 L35.5838596,27.4377143 M20.6498246,24.9287619 L10.48,30.8838095 C9.71017544,31.3325714 9.26245614,32.1462857 9.26245614,33.0948571 L9.26245614,35.1961905 C9.26245614,36.5805714 10.3024561,37.7089524 11.5775439,37.7089524 L34.3094737,37.7089524 C35.5845614,37.7089524 36.6245614,36.5805714 36.6245614,35.1961905 L36.6245614,33.0948571 C36.6245614,32.1470476 36.1761404,31.3325714 35.4070175,30.8838095 L25.3207018,24.9287619 M10.3207018,27.4377143 L4.92631579,27.4377143 C4.41684211,27.4377143 4,26.9851429 4,26.432 L4,25.2152381 C4,24.8350476 4.17964912,24.5112381 4.48701754,24.3306667 L9.59719298,21.4285714 M11.1101754,21.4285714 L14.8561404,23.5900952 M30.0575439,16.7146667 C30.0575439,21.5268571 26.8764912,25.4285714 22.9522807,25.4285714 C19.0280702,25.4285714 15.8470175,21.5268571 15.8470175,16.7146667 C15.8470175,11.9017143 19.0280702,8 22.9522807,8 C26.8764912,8 30.0575439,11.9017143 30.0575439,16.7146667 M38.8736842,17.7859048 C38.8736842,20.0137143 37.4007018,21.8201905 35.5838596,21.8201905 C33.7670175,21.8201905 32.2940351,20.0137143 32.2940351,17.7859048 C32.2940351,15.5573333 33.7670175,13.7508571 35.5838596,13.7508571 C37.4007018,13.7508571 38.8736842,15.5573333 38.8736842,17.7859048 M13.5705263,17.7859048 C13.5705263,20.0137143 12.0982456,21.8201905 10.2807018,21.8201905 C8.4645614,21.8201905 6.99157895,20.0137143 6.99157895,17.7859048 C6.99157895,15.5573333 8.4645614,13.7508571 10.2807018,13.7508571 C12.0982456,13.7508571 13.5705263,15.5573333 13.5705263,17.7859048" id="Social" sketch:type="MSShapeGroup"></path>
        </g>
    </g>
</svg>